<svg xmlns="http://www.w3.org/2000/svg" xmlns:xlink="http://www.w3.org/1999/xlink" contentStyleType="text/css" height="265px" preserveAspectRatio="none" style="width:1042px;height:265px;background:#FFFFFF;" version="1.1" viewBox="0 0 1042 265" width="1042px" zoomAndPan="magnify"><defs/><g><rect fill="#F1F1F1" height="92.2717" rx="5" ry="5" style="stroke:#F1F1F1;stroke-width:1.5;" width="210.7913" x="10" y="105.466"/><text fill="#000000" font-family="sans-serif" font-size="14" font-weight="bold" lengthAdjust="spacing" textLength="39.2419" x="15" y="122.432">name</text><text fill="#000000" font-family="sans-serif" font-size="14" lengthAdjust="spacing" textLength="130.8715" x="84.9198" y="122.432">AI Scenario Analysis</text><line style="stroke:#000000;stroke-width:1.0;" x1="79.9198" x2="79.9198" y1="105.466" y2="128.534"/><line style="stroke:#000000;stroke-width:1.0;" x1="10" x2="220.7913" y1="128.534" y2="128.534"/><text fill="#000000" font-family="sans-serif" font-size="14" font-weight="bold" lengthAdjust="spacing" textLength="53.1683" x="15" y="145.4999">success</text><text fill="#000000" font-family="sans-serif" font-size="14" lengthAdjust="spacing" textLength="47.0746" x="84.9198" y="145.4999">&#9744; false</text><line style="stroke:#000000;stroke-width:1.0;" x1="79.9198" x2="79.9198" y1="128.534" y2="151.6019"/><line style="stroke:#000000;stroke-width:1.0;" x1="10" x2="220.7913" y1="151.6019" y2="151.6019"/><text fill="#000000" font-family="sans-serif" font-size="14" font-weight="bold" lengthAdjust="spacing" textLength="59.9198" x="15" y="168.5678">analyses</text><text fill="#000000" font-family="sans-serif" font-size="14" lengthAdjust="spacing" textLength="10.92" x="84.9198" y="168.5678">&#160;&#160;&#160;</text><line style="stroke:#000000;stroke-width:1.0;" x1="79.9198" x2="79.9198" y1="151.6019" y2="174.6698"/><line style="stroke:#000000;stroke-width:1.0;" x1="10" x2="220.7913" y1="174.6698" y2="174.6698"/><text fill="#000000" font-family="sans-serif" font-size="14" font-weight="bold" lengthAdjust="spacing" textLength="44.2189" x="15" y="191.6357">report</text><text fill="#000000" font-family="sans-serif" font-size="14" lengthAdjust="spacing" textLength="10.92" x="84.9198" y="191.6357">&#160;&#160;&#160;</text><line style="stroke:#000000;stroke-width:1.0;" x1="79.9198" x2="79.9198" y1="174.6698" y2="197.7377"/><rect fill="none" height="92.2717" rx="5" ry="5" style="stroke:#000000;stroke-width:1.5;" width="210.7913" x="10" y="105.466"/><rect fill="#F1F1F1" height="69.2038" rx="5" ry="5" style="stroke:#F1F1F1;stroke-width:1.5;" width="20.92" x="437" y="97"/><text fill="#000000" font-family="sans-serif" font-size="14" lengthAdjust="spacing" textLength="10.92" x="442" y="113.9659">&#160;&#160;&#160;</text><line style="stroke:#000000;stroke-width:1.0;" x1="437" x2="457.92" y1="120.0679" y2="120.0679"/><text fill="#000000" font-family="sans-serif" font-size="14" lengthAdjust="spacing" textLength="10.92" x="442" y="137.0339">&#160;&#160;&#160;</text><line style="stroke:#000000;stroke-width:1.0;" x1="437" x2="457.92" y1="143.1358" y2="143.1358"/><text fill="#000000" font-family="sans-serif" font-size="14" lengthAdjust="spacing" textLength="10.92" x="442" y="160.1018">&#160;&#160;&#160;</text><rect fill="none" height="69.2038" rx="5" ry="5" style="stroke:#000000;stroke-width:1.5;" width="20.92" x="437" y="97"/><rect fill="#F1F1F1" height="69.2038" rx="5" ry="5" style="stroke:#F1F1F1;stroke-width:1.5;" width="330.8373" x="687" y="10"/><text fill="#000000" font-family="sans-serif" font-size="14" font-weight="bold" lengthAdjust="spacing" textLength="39.2419" x="692" y="26.9659">name</text><text fill="#000000" font-family="sans-serif" font-size="14" lengthAdjust="spacing" textLength="141.6515" x="755.1683" y="26.9659">PersonalDataAnalysis</text><line style="stroke:#000000;stroke-width:1.0;" x1="750.1683" x2="750.1683" y1="10" y2="33.0679"/><line style="stroke:#000000;stroke-width:1.0;" x1="687" x2="1017.8373" y1="33.0679" y2="33.0679"/><text fill="#000000" font-family="sans-serif" font-size="14" font-weight="bold" lengthAdjust="spacing" textLength="53.1683" x="692" y="50.0339">success</text><text fill="#000000" font-family="sans-serif" font-size="14" lengthAdjust="spacing" textLength="43.5747" x="755.1683" y="50.0339">&#9745; true</text><line style="stroke:#000000;stroke-width:1.0;" x1="750.1683" x2="750.1683" y1="33.0679" y2="56.1358"/><line style="stroke:#000000;stroke-width:1.0;" x1="687" x2="1017.8373" y1="56.1358" y2="56.1358"/><text fill="#000000" font-family="sans-serif" font-size="14" font-weight="bold" lengthAdjust="spacing" textLength="27.2999" x="692" y="73.1018">info</text><text fill="#000000" font-family="sans-serif" font-size="14" lengthAdjust="spacing" textLength="257.669" x="755.1683" y="73.1018">Data contains no  personal information</text><line style="stroke:#000000;stroke-width:1.0;" x1="750.1683" x2="750.1683" y1="56.1358" y2="79.2038"/><rect fill="none" height="69.2038" rx="5" ry="5" style="stroke:#000000;stroke-width:1.5;" width="330.8373" x="687" y="10"/><rect fill="#F1F1F1" height="69.2038" rx="5" ry="5" style="stroke:#F1F1F1;stroke-width:1.5;" width="356.9612" x="674" y="97"/><text fill="#000000" font-family="sans-serif" font-size="14" font-weight="bold" lengthAdjust="spacing" textLength="39.2419" x="679" y="113.9659">name</text><text fill="#000000" font-family="sans-serif" font-size="14" lengthAdjust="spacing" textLength="138.3195" x="742.1683" y="113.9659">AiAlgorithmsAnalysis</text><line style="stroke:#000000;stroke-width:1.0;" x1="737.1683" x2="737.1683" y1="97" y2="120.0679"/><line style="stroke:#000000;stroke-width:1.0;" x1="674" x2="1030.9612" y1="120.0679" y2="120.0679"/><text fill="#000000" font-family="sans-serif" font-size="14" font-weight="bold" lengthAdjust="spacing" textLength="53.1683" x="679" y="137.0339">success</text><text fill="#000000" font-family="sans-serif" font-size="14" lengthAdjust="spacing" textLength="47.0746" x="742.1683" y="137.0339">&#9744; false</text><line style="stroke:#000000;stroke-width:1.0;" x1="737.1683" x2="737.1683" y1="120.0679" y2="143.1358"/><line style="stroke:#000000;stroke-width:1.0;" x1="674" x2="1030.9612" y1="143.1358" y2="143.1358"/><text fill="#000000" font-family="sans-serif" font-size="14" font-weight="bold" lengthAdjust="spacing" textLength="27.2999" x="679" y="160.1018">info</text><text fill="#000000" font-family="sans-serif" font-size="14" lengthAdjust="spacing" textLength="283.7929" x="742.1683" y="160.1018">Algorithm X possible Data Poisoning Attack</text><line style="stroke:#000000;stroke-width:1.0;" x1="737.1683" x2="737.1683" y1="143.1358" y2="166.2038"/><rect fill="none" height="69.2038" rx="5" ry="5" style="stroke:#000000;stroke-width:1.5;" width="356.9612" x="674" y="97"/><rect fill="#F1F1F1" height="69.2038" rx="5" ry="5" style="stroke:#F1F1F1;stroke-width:1.5;" width="84.4243" x="810.5" y="184"/><text fill="#000000" font-family="sans-serif" font-size="14" font-weight="bold" lengthAdjust="spacing" textLength="39.2419" x="815.5" y="200.9659">name</text><text fill="#000000" font-family="sans-serif" font-size="14" lengthAdjust="spacing" textLength="11.256" x="878.6683" y="200.9659">...</text><line style="stroke:#000000;stroke-width:1.0;" x1="873.6683" x2="873.6683" y1="184" y2="207.0679"/><line style="stroke:#000000;stroke-width:1.0;" x1="810.5" x2="894.9243" y1="207.0679" y2="207.0679"/><text fill="#000000" font-family="sans-serif" font-size="14" font-weight="bold" lengthAdjust="spacing" textLength="53.1683" x="815.5" y="224.0339">success</text><text fill="#000000" font-family="sans-serif" font-size="14" lengthAdjust="spacing" textLength="11.256" x="878.6683" y="224.0339">...</text><line style="stroke:#000000;stroke-width:1.0;" x1="873.6683" x2="873.6683" y1="207.0679" y2="230.1358"/><line style="stroke:#000000;stroke-width:1.0;" x1="810.5" x2="894.9243" y1="230.1358" y2="230.1358"/><text fill="#000000" font-family="sans-serif" font-size="14" font-weight="bold" lengthAdjust="spacing" textLength="27.2999" x="815.5" y="247.1018">info</text><text fill="#000000" font-family="sans-serif" font-size="14" lengthAdjust="spacing" textLength="11.256" x="878.6683" y="247.1018">...</text><line style="stroke:#000000;stroke-width:1.0;" x1="873.6683" x2="873.6683" y1="230.1358" y2="253.2038"/><rect fill="none" height="69.2038" rx="5" ry="5" style="stroke:#000000;stroke-width:1.5;" width="84.4243" x="810.5" y="184"/><rect fill="#F1F1F1" height="69.2038" rx="5" ry="5" style="stroke:#F1F1F1;stroke-width:1.5;" width="378.8886" x="258" y="184"/><text fill="#000000" font-family="sans-serif" font-size="14" font-weight="bold" lengthAdjust="spacing" textLength="32.1579" x="263" y="200.9659">html</text><text fill="#000000" font-family="sans-serif" font-size="14" lengthAdjust="spacing" textLength="326.7307" x="305.1579" y="200.9659">&lt;html&gt;&lt;head&gt;...&lt;/head&gt;&lt;body&gt;...&lt;/body&gt;&lt;/html&gt;</text><line style="stroke:#000000;stroke-width:1.0;" x1="300.1579" x2="300.1579" y1="184" y2="207.0679"/><line style="stroke:#000000;stroke-width:1.0;" x1="258" x2="636.8886" y1="207.0679" y2="207.0679"/><text fill="#000000" font-family="sans-serif" font-size="14" font-weight="bold" lengthAdjust="spacing" textLength="25.4204" x="263" y="224.0339">xml</text><text fill="#000000" font-family="sans-serif" font-size="14" lengthAdjust="spacing" textLength="96.7116" x="305.1579" y="224.0339">&lt;xml&gt;...&lt;/xml&gt;</text><line style="stroke:#000000;stroke-width:1.0;" x1="300.1579" x2="300.1579" y1="207.0679" y2="230.1358"/><line style="stroke:#000000;stroke-width:1.0;" x1="258" x2="636.8886" y1="230.1358" y2="230.1358"/><text fill="#000000" font-family="sans-serif" font-size="14" font-weight="bold" lengthAdjust="spacing" textLength="20.5204" x="263" y="247.1018">rdf</text><text fill="#000000" font-family="sans-serif" font-size="14" lengthAdjust="spacing" textLength="113.1895" x="305.1579" y="247.1018">{"@context": {...}}</text><line style="stroke:#000000;stroke-width:1.0;" x1="300.1579" x2="300.1579" y1="230.1358" y2="253.2038"/><rect fill="none" height="69.2038" rx="5" ry="5" style="stroke:#000000;stroke-width:1.5;" width="378.8886" x="258" y="184"/><path d="M447,108.6019 L460,108.6019 C540.6671,108.6019 629.4659,95.2377 702.1202,80.7233 " fill="none" style="stroke:#000000;stroke-width:1.0;stroke-dasharray:3.0,3.0;"/><path d="M702.7198,83.6943 L704.3484,80.2736 L701.5206,77.7523 L709.5477,79.2243 L702.7198,83.6943 " fill="#000000" style="stroke:#000000;stroke-width:1.0;"/><ellipse cx="447" cy="108.6019" fill="#000000" rx="3" ry="3" style="stroke:#000000;stroke-width:1.0;"/><path d="M447,131.6019 L460,131.6019 C527.496,131.6019 601.5291,131.6019 666.9039,131.6019 " fill="none" style="stroke:#000000;stroke-width:1.0;stroke-dasharray:3.0,3.0;"/><path d="M666.9039,134.6095 L669.1596,131.6019 L666.9039,128.5942 L674.423,131.6019 L666.9039,134.6095 " fill="#000000" style="stroke:#000000;stroke-width:1.0;"/><ellipse cx="447" cy="131.6019" fill="#000000" rx="3" ry="3" style="stroke:#000000;stroke-width:1.0;"/><path d="M447,154.6019 L460,154.6019 C585.1674,154.6019 729.9128,186.7778 803.5451,205.5011 " fill="none" style="stroke:#000000;stroke-width:1.0;stroke-dasharray:3.0,3.0;"/><path d="M802.7933,208.4335 L805.7444,206.065 L804.297,202.5686 L810.8762,207.3807 L802.7933,208.4335 " fill="#000000" style="stroke:#000000;stroke-width:1.0;"/><ellipse cx="447" cy="154.6019" fill="#000000" rx="3" ry="3" style="stroke:#000000;stroke-width:1.0;"/><path d="M209,163.6019 L222,163.6019 C300.1313,163.6019 392.0171,144.4548 429.6287,135.7822 " fill="none" style="stroke:#000000;stroke-width:1.0;stroke-dasharray:3.0,3.0;"/><path d="M430.3387,138.8114 L431.9006,135.2497 L428.9186,132.753 L437.2017,134.0071 L430.3387,138.8114 " fill="#000000" style="stroke:#000000;stroke-width:1.0;"/><ellipse cx="209" cy="163.6019" fill="#000000" rx="3" ry="3" style="stroke:#000000;stroke-width:1.0;"/><path d="M209,186.6019 L222,186.6019 C231.3399,186.6019 240.8763,186.8755 250.4931,187.3721 " fill="none" style="stroke:#000000;stroke-width:1.0;stroke-dasharray:3.0,3.0;"/><path d="M250.315,190.4631 L252.8113,187.5056 L250.6711,184.2811 L258.2205,187.8172 L250.315,190.4631 " fill="#000000" style="stroke:#000000;stroke-width:1.0;"/><ellipse cx="209" cy="186.6019" fill="#000000" rx="3" ry="3" style="stroke:#000000;stroke-width:1.0;"/><!--SRC=[LPBHRzem4CQVoLznobChjLdf4AeYL96LRXe35IrjLQdTmv4OyEQSaUqWK9N_VUSabFJ9pdVVVR-JBsFhqBY_LbFm7lH2maA444EO_8Gq4uH6QaW8rS5A6rwmmvPP9gprfXKgAxo6jK7KuYl7j3aSin26er5Dq64tvfGJWpEbg2L9A-sRl1aoJGubMI0Di6rZm5jCWKvg2hcbkW2FE_4IcQYrDj9j2lk9rmKUv-uWFxhW1RRQMhbK0kev5beoMj8Q4kSm- -Un7zmJE8gYXjC5TTKZoKkrKlrfAqPijN5SQo9xuSOLobj7_d8xsWZCRxbjzAM-ZPOwFpJVzOrbRsivlN3VDlFPkFRTgibNzNxVtyAnVsAnTsyUpSwgQWRhLP-EiQ2y_Z-2XK9oJ_CPx7WTl07eHzTNruDeU9QYWscfu6e8_NxS7yHVR-3kFdq4NpyFpduiPc1rQJ81kRJEo6NfLtWUJ767yBia9miHmyDMq7JowoZ0FUsaqLG8Si7qUNuo30UNtwI3L1WU1PxdmKIii5IEEpATyx9YU7hyVdaJp93M9QuvMr1mfpdN7BYM_WS0]--></g></svg>