<svg xmlns="http://www.w3.org/2000/svg" xmlns:xlink="http://www.w3.org/1999/xlink" contentStyleType="text/css" height="701px" preserveAspectRatio="none" style="width:1013px;height:701px;background:#FFFFFF;" version="1.1" viewBox="0 0 1013 701" width="1013px" zoomAndPan="magnify"><defs/><g><line style="stroke:#181818;stroke-width:0.5;stroke-dasharray:5.0,5.0;" x1="56" x2="56" y1="97.9766" y2="603.9453"/><line style="stroke:#181818;stroke-width:0.5;stroke-dasharray:5.0,5.0;" x1="285.8433" x2="285.8433" y1="97.9766" y2="603.9453"/><line style="stroke:#181818;stroke-width:0.5;stroke-dasharray:5.0,5.0;" x1="371.3462" x2="371.3462" y1="97.9766" y2="603.9453"/><line style="stroke:#181818;stroke-width:0.5;stroke-dasharray:5.0,5.0;" x1="538.9092" x2="538.9092" y1="97.9766" y2="603.9453"/><line style="stroke:#181818;stroke-width:0.5;stroke-dasharray:5.0,5.0;" x1="667.2495" x2="667.2495" y1="97.9766" y2="603.9453"/><line style="stroke:#181818;stroke-width:0.5;stroke-dasharray:5.0,5.0;" x1="795.9995" x2="795.9995" y1="97.9766" y2="603.9453"/><line style="stroke:#181818;stroke-width:0.5;stroke-dasharray:5.0,5.0;" x1="961.9937" x2="961.9937" y1="97.9766" y2="603.9453"/><text fill="#000000" font-family="sans-serif" font-size="14" lengthAdjust="spacing" textLength="97.6582" x="5" y="78.5352">Use Case Lead</text><text fill="#000000" font-family="sans-serif" font-size="14" lengthAdjust="spacing" textLength="70.9775" x="18.3403" y="95.0234">(AI Expert)</text><ellipse cx="56.8291" cy="13.5" fill="#E2E2F0" rx="8" ry="8" style="stroke:#181818;stroke-width:0.5;"/><path d="M56.8291,21.5 L56.8291,48.5 M43.8291,29.5 L69.8291,29.5 M56.8291,48.5 L43.8291,63.5 M56.8291,48.5 L69.8291,63.5 " fill="none" style="stroke:#181818;stroke-width:0.5;"/><text fill="#000000" font-family="sans-serif" font-size="14" lengthAdjust="spacing" textLength="97.6582" x="5" y="616.4805">Use Case Lead</text><text fill="#000000" font-family="sans-serif" font-size="14" lengthAdjust="spacing" textLength="70.9775" x="18.3403" y="632.9688">(AI Expert)</text><ellipse cx="56.8291" cy="644.4219" fill="#E2E2F0" rx="8" ry="8" style="stroke:#181818;stroke-width:0.5;"/><path d="M56.8291,652.4219 L56.8291,679.4219 M43.8291,660.4219 L69.8291,660.4219 M56.8291,679.4219 L43.8291,694.4219 M56.8291,679.4219 L69.8291,694.4219 " fill="none" style="stroke:#181818;stroke-width:0.5;"/><rect fill="#E2E2F0" height="46.9766" rx="2.5" ry="2.5" style="stroke:#181818;stroke-width:0.5;" width="75.5029" x="248.8433" y="50"/><text fill="#000000" font-family="sans-serif" font-size="14" lengthAdjust="spacing" textLength="61.5029" x="255.8433" y="70.5352">CARiSMA</text><text fill="#000000" font-family="sans-serif" font-size="14" lengthAdjust="spacing" textLength="58.8916" x="257.1489" y="87.0234">Modeller</text><rect fill="#E2E2F0" height="46.9766" rx="2.5" ry="2.5" style="stroke:#181818;stroke-width:0.5;" width="75.5029" x="248.8433" y="602.9453"/><text fill="#000000" font-family="sans-serif" font-size="14" lengthAdjust="spacing" textLength="61.5029" x="255.8433" y="623.4805">CARiSMA</text><text fill="#000000" font-family="sans-serif" font-size="14" lengthAdjust="spacing" textLength="58.8916" x="257.1489" y="639.9688">Modeller</text><rect fill="#E2E2F0" height="46.9766" rx="2.5" ry="2.5" style="stroke:#181818;stroke-width:0.5;" width="75.5029" x="334.3462" y="50"/><text fill="#000000" font-family="sans-serif" font-size="14" lengthAdjust="spacing" textLength="61.5029" x="341.3462" y="70.5352">CARiSMA</text><text fill="#000000" font-family="sans-serif" font-size="14" lengthAdjust="spacing" textLength="58.9941" x="342.6006" y="87.0234">Analyzer</text><rect fill="#E2E2F0" height="46.9766" rx="2.5" ry="2.5" style="stroke:#181818;stroke-width:0.5;" width="75.5029" x="334.3462" y="602.9453"/><text fill="#000000" font-family="sans-serif" font-size="14" lengthAdjust="spacing" textLength="61.5029" x="341.3462" y="623.4805">CARiSMA</text><text fill="#000000" font-family="sans-serif" font-size="14" lengthAdjust="spacing" textLength="58.9941" x="342.6006" y="639.9688">Analyzer</text><rect fill="#E2E2F0" height="46.9766" rx="2.5" ry="2.5" style="stroke:#181818;stroke-width:0.5;" width="92.1689" x="492.9092" y="50"/><text fill="#000000" font-family="sans-serif" font-size="14" lengthAdjust="spacing" textLength="78.1689" x="499.9092" y="70.5352">PDC @BB04</text><text fill="#000000" font-family="sans-serif" font-size="14" lengthAdjust="spacing" textLength="64.8047" x="506.5913" y="87.0234">(Provider)</text><rect fill="#E2E2F0" height="46.9766" rx="2.5" ry="2.5" style="stroke:#181818;stroke-width:0.5;" width="92.1689" x="492.9092" y="602.9453"/><text fill="#000000" font-family="sans-serif" font-size="14" lengthAdjust="spacing" textLength="78.1689" x="499.9092" y="623.4805">PDC @BB04</text><text fill="#000000" font-family="sans-serif" font-size="14" lengthAdjust="spacing" textLength="64.8047" x="506.5913" y="639.9688">(Provider)</text><rect fill="#E2E2F0" height="46.9766" rx="2.5" ry="2.5" style="stroke:#181818;stroke-width:0.5;" width="92.5039" x="621.2495" y="50"/><text fill="#000000" font-family="sans-serif" font-size="14" lengthAdjust="spacing" textLength="78.1689" x="628.417" y="70.5352">PDC @BB07</text><text fill="#000000" font-family="sans-serif" font-size="14" lengthAdjust="spacing" textLength="78.5039" x="628.2495" y="87.0234">(Consumer)</text><rect fill="#E2E2F0" height="46.9766" rx="2.5" ry="2.5" style="stroke:#181818;stroke-width:0.5;" width="92.5039" x="621.2495" y="602.9453"/><text fill="#000000" font-family="sans-serif" font-size="14" lengthAdjust="spacing" textLength="78.1689" x="628.417" y="623.4805">PDC @BB07</text><text fill="#000000" font-family="sans-serif" font-size="14" lengthAdjust="spacing" textLength="78.5039" x="628.2495" y="639.9688">(Consumer)</text><rect fill="#E2E2F0" height="46.9766" rx="2.5" ry="2.5" style="stroke:#181818;stroke-width:0.5;" width="116.0195" x="737.9995" y="50"/><text fill="#000000" font-family="sans-serif" font-size="14" lengthAdjust="spacing" textLength="76.0293" x="757.9946" y="70.5352">Distributed</text><text fill="#000000" font-family="sans-serif" font-size="14" lengthAdjust="spacing" textLength="102.0195" x="744.9995" y="87.0234">Data Visualizer</text><rect fill="#E2E2F0" height="46.9766" rx="2.5" ry="2.5" style="stroke:#181818;stroke-width:0.5;" width="116.0195" x="737.9995" y="602.9453"/><text fill="#000000" font-family="sans-serif" font-size="14" lengthAdjust="spacing" textLength="76.0293" x="757.9946" y="623.4805">Distributed</text><text fill="#000000" font-family="sans-serif" font-size="14" lengthAdjust="spacing" textLength="102.0195" x="744.9995" y="639.9688">Data Visualizer</text><text fill="#000000" font-family="sans-serif" font-size="14" lengthAdjust="spacing" textLength="30.3652" x="944.7227" y="78.5352">User</text><text fill="#000000" font-family="sans-serif" font-size="14" lengthAdjust="spacing" textLength="93.8232" x="912.9937" y="95.0234">(Data subject)</text><ellipse cx="962.9053" cy="13.5" fill="#E2E2F0" rx="8" ry="8" style="stroke:#181818;stroke-width:0.5;"/><path d="M962.9053,21.5 L962.9053,48.5 M949.9053,29.5 L975.9053,29.5 M962.9053,48.5 L949.9053,63.5 M962.9053,48.5 L975.9053,63.5 " fill="none" style="stroke:#181818;stroke-width:0.5;"/><text fill="#000000" font-family="sans-serif" font-size="14" lengthAdjust="spacing" textLength="30.3652" x="944.7227" y="616.4805">User</text><text fill="#000000" font-family="sans-serif" font-size="14" lengthAdjust="spacing" textLength="93.8232" x="912.9937" y="632.9688">(Data subject)</text><ellipse cx="962.9053" cy="644.4219" fill="#E2E2F0" rx="8" ry="8" style="stroke:#181818;stroke-width:0.5;"/><path d="M962.9053,652.4219 L962.9053,679.4219 M949.9053,660.4219 L975.9053,660.4219 M962.9053,679.4219 L949.9053,694.4219 M962.9053,679.4219 L975.9053,694.4219 " fill="none" style="stroke:#181818;stroke-width:0.5;"/><polygon fill="#181818" points="274.5947,125.2871,284.5947,129.2871,274.5947,133.2871,278.5947,129.2871" style="stroke:#181818;stroke-width:1.0;"/><line style="stroke:#181818;stroke-width:1.0;" x1="56.8291" x2="280.5947" y1="129.2871" y2="129.2871"/><text fill="#000000" font-family="sans-serif" font-size="13" lengthAdjust="spacing" textLength="180.502" x="63.8291" y="124.5449">Create Model &amp; Specification</text><polygon fill="#181818" points="274.5947,154.5977,284.5947,158.5977,274.5947,162.5977,278.5947,158.5977" style="stroke:#181818;stroke-width:1.0;"/><line style="stroke:#181818;stroke-width:1.0;" x1="56.8291" x2="280.5947" y1="158.5977" y2="158.5977"/><text fill="#000000" font-family="sans-serif" font-size="13" lengthAdjust="spacing" textLength="205.7656" x="63.8291" y="153.8555">Annotate Model with AI specifics</text><polygon fill="#181818" points="360.0977,183.9082,370.0977,187.9082,360.0977,191.9082,364.0977,187.9082" style="stroke:#181818;stroke-width:1.0;"/><line style="stroke:#181818;stroke-width:1.0;" x1="56.8291" x2="366.0977" y1="187.9082" y2="187.9082"/><text fill="#000000" font-family="sans-serif" font-size="13" lengthAdjust="spacing" textLength="188.7031" x="63.8291" y="183.166">Create Analysis Definition File</text><polygon fill="#181818" points="360.0977,213.2188,370.0977,217.2188,360.0977,221.2188,364.0977,217.2188" style="stroke:#181818;stroke-width:1.0;"/><line style="stroke:#181818;stroke-width:1.0;" x1="286.5947" x2="366.0977" y1="217.2188" y2="217.2188"/><text fill="#000000" font-family="sans-serif" font-size="13" lengthAdjust="spacing" textLength="38.3652" x="293.5947" y="212.4766">Model</text><polygon fill="#181818" points="360.0977,242.5293,370.0977,246.5293,360.0977,250.5293,364.0977,246.5293" style="stroke:#181818;stroke-width:1.0;"/><line style="stroke:#181818;stroke-width:1.0;" x1="56.8291" x2="366.0977" y1="246.5293" y2="246.5293"/><text fill="#000000" font-family="sans-serif" font-size="13" lengthAdjust="spacing" textLength="85.1157" x="63.8291" y="241.7871">Start Analysis</text><line style="stroke:#181818;stroke-width:1.0;" x1="372.0977" x2="414.0977" y1="275.8398" y2="275.8398"/><line style="stroke:#181818;stroke-width:1.0;" x1="414.0977" x2="414.0977" y1="275.8398" y2="288.8398"/><line style="stroke:#181818;stroke-width:1.0;" x1="373.0977" x2="414.0977" y1="288.8398" y2="288.8398"/><polygon fill="#181818" points="383.0977,284.8398,373.0977,288.8398,383.0977,292.8398,379.0977,288.8398" style="stroke:#181818;stroke-width:1.0;"/><text fill="#000000" font-family="sans-serif" font-size="13" lengthAdjust="spacing" textLength="135.4209" x="379.0977" y="271.0977">Analysis of the Model</text><polygon fill="#181818" points="360.0977,314.1504,370.0977,318.1504,360.0977,322.1504,364.0977,318.1504" style="stroke:#181818;stroke-width:1.0;"/><line style="stroke:#181818;stroke-width:1.0;" x1="56.8291" x2="366.0977" y1="318.1504" y2="318.1504"/><text fill="#000000" font-family="sans-serif" font-size="13" lengthAdjust="spacing" textLength="138.1377" x="63.8291" y="313.4082">View Results &amp; Report</text><line style="stroke:#181818;stroke-width:1.0;" x1="372.0977" x2="414.0977" y1="347.4609" y2="347.4609"/><line style="stroke:#181818;stroke-width:1.0;" x1="414.0977" x2="414.0977" y1="347.4609" y2="360.4609"/><line style="stroke:#181818;stroke-width:1.0;" x1="373.0977" x2="414.0977" y1="360.4609" y2="360.4609"/><polygon fill="#181818" points="383.0977,356.4609,373.0977,360.4609,383.0977,364.4609,379.0977,360.4609" style="stroke:#181818;stroke-width:1.0;"/><text fill="#000000" font-family="sans-serif" font-size="13" lengthAdjust="spacing" textLength="152.896" x="379.0977" y="342.7188">Render Results &amp; Report</text><polygon fill="#181818" points="360.0977,404.082,370.0977,408.082,360.0977,412.082,364.0977,408.082" style="stroke:#181818;stroke-width:1.0;"/><line style="stroke:#181818;stroke-width:1.0;" x1="56.8291" x2="366.0977" y1="408.082" y2="408.082"/><text fill="#000000" font-family="sans-serif" font-size="13" lengthAdjust="spacing" textLength="143.4316" x="63.8291" y="403.3398">Share Results &amp; Report</text><path d="M377,373.4609 L377,428.4609 L576,428.4609 L576,383.4609 L566,373.4609 L377,373.4609 " fill="#FEFFDD" style="stroke:#181818;stroke-width:0.5;"/><path d="M566,373.4609 L566,383.4609 L576,383.4609 L566,373.4609 " fill="#FEFFDD" style="stroke:#181818;stroke-width:0.5;"/><text fill="#000000" font-family="sans-serif" font-size="13" lengthAdjust="spacing" textLength="178.2993" x="383" y="391.0293">Check, whether involvement</text><text fill="#000000" font-family="sans-serif" font-size="13" lengthAdjust="spacing" textLength="150.5283" x="383" y="406.3398">of Catalog and Contract</text><text fill="#000000" font-family="sans-serif" font-size="13" lengthAdjust="spacing" textLength="76.2544" x="383" y="421.6504">is necessary</text><polygon fill="#181818" points="526.9937,451.7031,536.9937,455.7031,526.9937,459.7031,530.9937,455.7031" style="stroke:#181818;stroke-width:1.0;"/><line style="stroke:#181818;stroke-width:1.0;" x1="372.0977" x2="532.9937" y1="455.7031" y2="455.7031"/><text fill="#000000" font-family="sans-serif" font-size="13" lengthAdjust="spacing" textLength="104.5078" x="379.0977" y="450.9609">Results &amp; Report</text><polygon fill="#181818" points="655.5015,481.0137,665.5015,485.0137,655.5015,489.0137,659.5015,485.0137" style="stroke:#181818;stroke-width:1.0;"/><line style="stroke:#181818;stroke-width:1.0;" x1="538.9937" x2="661.5015" y1="485.0137" y2="485.0137"/><text fill="#000000" font-family="sans-serif" font-size="13" lengthAdjust="spacing" textLength="104.5078" x="545.9937" y="480.2715">Results &amp; Report</text><polygon fill="#181818" points="784.0093,510.3242,794.0093,514.3242,784.0093,518.3242,788.0093,514.3242" style="stroke:#181818;stroke-width:1.0;"/><line style="stroke:#181818;stroke-width:1.0;" x1="667.5015" x2="790.0093" y1="514.3242" y2="514.3242"/><text fill="#000000" font-family="sans-serif" font-size="13" lengthAdjust="spacing" textLength="104.5078" x="674.5015" y="509.582">Results &amp; Report</text><line style="stroke:#181818;stroke-width:1.0;" x1="796.0093" x2="838.0093" y1="543.6348" y2="543.6348"/><line style="stroke:#181818;stroke-width:1.0;" x1="838.0093" x2="838.0093" y1="543.6348" y2="556.6348"/><line style="stroke:#181818;stroke-width:1.0;" x1="797.0093" x2="838.0093" y1="556.6348" y2="556.6348"/><polygon fill="#181818" points="807.0093,552.6348,797.0093,556.6348,807.0093,560.6348,803.0093,556.6348" style="stroke:#181818;stroke-width:1.0;"/><text fill="#000000" font-family="sans-serif" font-size="13" lengthAdjust="spacing" textLength="152.896" x="803.0093" y="538.8926">Render Results &amp; Report</text><polygon fill="#181818" points="807.0093,581.9453,797.0093,585.9453,807.0093,589.9453,803.0093,585.9453" style="stroke:#181818;stroke-width:1.0;"/><line style="stroke:#181818;stroke-width:1.0;" x1="801.0093" x2="961.9053" y1="585.9453" y2="585.9453"/><text fill="#000000" font-family="sans-serif" font-size="13" lengthAdjust="spacing" textLength="138.1377" x="813.0093" y="581.2031">View Results &amp; Report</text><!--SRC=[TP91IyD048NFxgyOUX051Is282B6L45Ga1PxyZ9kfcOqtGsxazJwwvscQHjjUybXtxTltfiDMl41Ug-H84NzF15cR-ueUOJxxvA27FS08w0fCGXRBj49zD9aoAFdvCqz-uoAWa83sUaUAd5Op7zMr3-lbq4AjtTtPnSwzINucZCAow5bPiztivVAfjx5QjfX-t_P0KS9_5u9QPy12iAOOuK5huBK1jVTWnesJApUFycshIjZ3CBfZJQ3AqW3eH0qbU4GHYLPdh15OUywMEASbmquOyb1jnbRFBOeRXoRzKIECA09ErxumGCNPDHlXJPcdQiZqQxhcyPkbBMRdu3aj7Lpp3I38SMgaAWrXbJw85s38JbzWcsaCpp7GDk0zYO8_96BEKXpibydCCj9CmHWL_kYfYavrJHOghik_0UWoq0VKe8-XJdGq8uinOXXRZG5B1pRQ8kVeGdtRsXpljJxU_J-GgztYVL6sTsvXkjJgFPjxHS0]--></g></svg>