<svg xmlns="http://www.w3.org/2000/svg" xmlns:xlink="http://www.w3.org/1999/xlink" contentStyleType="text/css" height="750px" preserveAspectRatio="none" style="width:981px;height:750px;background:#FFFFFF;" version="1.1" viewBox="0 0 981 750" width="981px" zoomAndPan="magnify"><defs/><g><line style="stroke:#181818;stroke-width:0.5;stroke-dasharray:5.0,5.0;" x1="48" x2="48" y1="103.1358" y2="647.4321"/><line style="stroke:#181818;stroke-width:0.5;stroke-dasharray:5.0,5.0;" x1="270.5731" x2="270.5731" y1="103.1358" y2="647.4321"/><line style="stroke:#181818;stroke-width:0.5;stroke-dasharray:5.0,5.0;" x1="354.0169" x2="354.0169" y1="103.1358" y2="647.4321"/><line style="stroke:#181818;stroke-width:0.5;stroke-dasharray:5.0,5.0;" x1="516.8461" x2="516.8461" y1="103.1358" y2="647.4321"/><line style="stroke:#181818;stroke-width:0.5;stroke-dasharray:5.0,5.0;" x1="642.4152" x2="642.4152" y1="103.1358" y2="647.4321"/><line style="stroke:#181818;stroke-width:0.5;stroke-dasharray:5.0,5.0;" x1="768.3104" x2="768.3104" y1="103.1358" y2="647.4321"/><line style="stroke:#181818;stroke-width:0.5;stroke-dasharray:5.0,5.0;" x1="931.9355" x2="931.9355" y1="103.1358" y2="647.4321"/><text fill="#000000" font-family="sans-serif" font-size="14" lengthAdjust="spacing" textLength="59.8638" x="15.801" y="79.9659">AI Expert</text><text fill="#000000" font-family="sans-serif" font-size="14" lengthAdjust="spacing" textLength="81.4657" x="5" y="99.0339">(AI Provider)</text><ellipse cx="48.7328" cy="13.5" fill="#E2E2F0" rx="8" ry="8" style="stroke:#181818;stroke-width:0.5;"/><path d="M48.7328,21.5 L48.7328,48.5 M35.7328,29.5 L61.7328,29.5 M48.7328,48.5 L35.7328,63.5 M48.7328,48.5 L61.7328,63.5 " fill="none" style="stroke:#181818;stroke-width:0.5;"/><text fill="#000000" font-family="sans-serif" font-size="14" lengthAdjust="spacing" textLength="59.8638" x="15.801" y="661.398">AI Expert</text><text fill="#000000" font-family="sans-serif" font-size="14" lengthAdjust="spacing" textLength="81.4657" x="5" y="680.466">(AI Provider)</text><ellipse cx="48.7328" cy="693.0679" fill="#E2E2F0" rx="8" ry="8" style="stroke:#181818;stroke-width:0.5;"/><path d="M48.7328,701.0679 L48.7328,728.0679 M35.7328,709.0679 L61.7328,709.0679 M48.7328,728.0679 L35.7328,743.0679 M48.7328,728.0679 L61.7328,743.0679 " fill="none" style="stroke:#181818;stroke-width:0.5;"/><rect fill="#E2E2F0" height="52.1358" rx="2.5" ry="2.5" style="stroke:#181818;stroke-width:0.5;" width="73.4438" x="234.5731" y="50"/><text fill="#000000" font-family="sans-serif" font-size="14" lengthAdjust="spacing" textLength="59.4438" x="241.5731" y="71.9659">CARiSMA</text><text fill="#000000" font-family="sans-serif" font-size="14" lengthAdjust="spacing" textLength="58.5758" x="242.0071" y="91.0339">Modeller</text><rect fill="#E2E2F0" height="52.1358" rx="2.5" ry="2.5" style="stroke:#181818;stroke-width:0.5;" width="73.4438" x="234.5731" y="646.4321"/><text fill="#000000" font-family="sans-serif" font-size="14" lengthAdjust="spacing" textLength="59.4438" x="241.5731" y="668.398">CARiSMA</text><text fill="#000000" font-family="sans-serif" font-size="14" lengthAdjust="spacing" textLength="58.5758" x="242.0071" y="687.466">Modeller</text><rect fill="#E2E2F0" height="52.1358" rx="2.5" ry="2.5" style="stroke:#181818;stroke-width:0.5;" width="73.4438" x="318.0169" y="50"/><text fill="#000000" font-family="sans-serif" font-size="14" lengthAdjust="spacing" textLength="59.4438" x="325.0169" y="71.9659">CARiSMA</text><text fill="#000000" font-family="sans-serif" font-size="14" lengthAdjust="spacing" textLength="56.4618" x="326.5079" y="91.0339">Analyzer</text><rect fill="#E2E2F0" height="52.1358" rx="2.5" ry="2.5" style="stroke:#181818;stroke-width:0.5;" width="73.4438" x="318.0169" y="646.4321"/><text fill="#000000" font-family="sans-serif" font-size="14" lengthAdjust="spacing" textLength="59.4438" x="325.0169" y="668.398">CARiSMA</text><text fill="#000000" font-family="sans-serif" font-size="14" lengthAdjust="spacing" textLength="56.4618" x="326.5079" y="687.466">Analyzer</text><rect fill="#E2E2F0" height="52.1358" rx="2.5" ry="2.5" style="stroke:#181818;stroke-width:0.5;" width="91.9797" x="471.8461" y="50"/><text fill="#000000" font-family="sans-serif" font-size="14" lengthAdjust="spacing" textLength="77.9797" x="478.8461" y="71.9659">PDC @BB04</text><text fill="#000000" font-family="sans-serif" font-size="14" lengthAdjust="spacing" textLength="64.1338" x="485.7691" y="91.0339">(Provider)</text><rect fill="#E2E2F0" height="52.1358" rx="2.5" ry="2.5" style="stroke:#181818;stroke-width:0.5;" width="91.9797" x="471.8461" y="646.4321"/><text fill="#000000" font-family="sans-serif" font-size="14" lengthAdjust="spacing" textLength="77.9797" x="478.8461" y="668.398">PDC @BB04</text><text fill="#000000" font-family="sans-serif" font-size="14" lengthAdjust="spacing" textLength="64.1338" x="485.7691" y="687.466">(Provider)</text><rect fill="#E2E2F0" height="52.1358" rx="2.5" ry="2.5" style="stroke:#181818;stroke-width:0.5;" width="91.9797" x="597.4152" y="50"/><text fill="#000000" font-family="sans-serif" font-size="14" lengthAdjust="spacing" textLength="77.9797" x="604.4152" y="71.9659">PDC @BB07</text><text fill="#000000" font-family="sans-serif" font-size="14" lengthAdjust="spacing" textLength="76.4957" x="605.1572" y="91.0339">(Consumer)</text><rect fill="#E2E2F0" height="52.1358" rx="2.5" ry="2.5" style="stroke:#181818;stroke-width:0.5;" width="91.9797" x="597.4152" y="646.4321"/><text fill="#000000" font-family="sans-serif" font-size="14" lengthAdjust="spacing" textLength="77.9797" x="604.4152" y="668.398">PDC @BB07</text><text fill="#000000" font-family="sans-serif" font-size="14" lengthAdjust="spacing" textLength="76.4957" x="605.1572" y="687.466">(Consumer)</text><rect fill="#E2E2F0" height="52.1358" rx="2.5" ry="2.5" style="stroke:#181818;stroke-width:0.5;" width="111.3276" x="713.3104" y="50"/><text fill="#000000" font-family="sans-serif" font-size="14" lengthAdjust="spacing" textLength="73.8077" x="732.0703" y="71.9659">Distributed</text><text fill="#000000" font-family="sans-serif" font-size="14" lengthAdjust="spacing" textLength="97.3276" x="720.3104" y="91.0339">Data Visualizer</text><rect fill="#E2E2F0" height="52.1358" rx="2.5" ry="2.5" style="stroke:#181818;stroke-width:0.5;" width="111.3276" x="713.3104" y="646.4321"/><text fill="#000000" font-family="sans-serif" font-size="14" lengthAdjust="spacing" textLength="73.8077" x="732.0703" y="668.398">Distributed</text><text fill="#000000" font-family="sans-serif" font-size="14" lengthAdjust="spacing" textLength="97.3276" x="720.3104" y="687.466">Data Visualizer</text><text fill="#000000" font-family="sans-serif" font-size="14" lengthAdjust="spacing" textLength="30.6179" x="913.7624" y="79.9659">User</text><text fill="#000000" font-family="sans-serif" font-size="14" lengthAdjust="spacing" textLength="90.2717" x="883.9355" y="99.0339">(Data subject)</text><ellipse cx="932.0713" cy="13.5" fill="#E2E2F0" rx="8" ry="8" style="stroke:#181818;stroke-width:0.5;"/><path d="M932.0713,21.5 L932.0713,48.5 M919.0713,29.5 L945.0713,29.5 M932.0713,48.5 L919.0713,63.5 M932.0713,48.5 L945.0713,63.5 " fill="none" style="stroke:#181818;stroke-width:0.5;"/><text fill="#000000" font-family="sans-serif" font-size="14" lengthAdjust="spacing" textLength="30.6179" x="913.7624" y="661.398">User</text><text fill="#000000" font-family="sans-serif" font-size="14" lengthAdjust="spacing" textLength="90.2717" x="883.9355" y="680.466">(Data subject)</text><ellipse cx="932.0713" cy="693.0679" fill="#E2E2F0" rx="8" ry="8" style="stroke:#181818;stroke-width:0.5;"/><path d="M932.0713,701.0679 L932.0713,728.0679 M919.0713,709.0679 L945.0713,709.0679 M932.0713,728.0679 L919.0713,743.0679 M932.0713,728.0679 L945.0713,743.0679 " fill="none" style="stroke:#181818;stroke-width:0.5;"/><polygon fill="#181818" points="259.295,132.8419,269.295,136.8419,259.295,140.8419,263.295,136.8419" style="stroke:#181818;stroke-width:1.0;"/><line style="stroke:#181818;stroke-width:1.0;" x1="48.7328" x2="265.295" y1="136.8419" y2="136.8419"/><text fill="#000000" font-family="sans-serif" font-size="13" lengthAdjust="spacing" textLength="175.5911" x="55.7328" y="131.0328">Create Model &amp; Specification</text><polygon fill="#181818" points="259.295,164.5479,269.295,168.5479,259.295,172.5479,263.295,168.5479" style="stroke:#181818;stroke-width:1.0;"/><line style="stroke:#181818;stroke-width:1.0;" x1="48.7328" x2="265.295" y1="168.5479" y2="168.5479"/><text fill="#000000" font-family="sans-serif" font-size="13" lengthAdjust="spacing" textLength="198.5622" x="55.7328" y="162.7389">Annotate Model with AI specifics</text><polygon fill="#181818" points="342.7388,196.2539,352.7388,200.2539,342.7388,204.2539,346.7388,200.2539" style="stroke:#181818;stroke-width:1.0;"/><line style="stroke:#181818;stroke-width:1.0;" x1="48.7328" x2="348.7388" y1="200.2539" y2="200.2539"/><text fill="#000000" font-family="sans-serif" font-size="13" lengthAdjust="spacing" textLength="180.5701" x="55.7328" y="194.4449">Create Analysis Definition File</text><polygon fill="#181818" points="342.7388,227.9599,352.7388,231.9599,342.7388,235.9599,346.7388,231.9599" style="stroke:#181818;stroke-width:1.0;"/><line style="stroke:#181818;stroke-width:1.0;" x1="271.295" x2="348.7388" y1="231.9599" y2="231.9599"/><text fill="#000000" font-family="sans-serif" font-size="13" lengthAdjust="spacing" textLength="38.337" x="278.295" y="226.1509">Model</text><polygon fill="#181818" points="342.7388,259.6659,352.7388,263.6659,342.7388,267.6659,346.7388,263.6659" style="stroke:#181818;stroke-width:1.0;"/><line style="stroke:#181818;stroke-width:1.0;" x1="48.7328" x2="348.7388" y1="263.6659" y2="263.6659"/><text fill="#000000" font-family="sans-serif" font-size="13" lengthAdjust="spacing" textLength="81.9911" x="55.7328" y="257.8569">Start Analysis</text><line style="stroke:#181818;stroke-width:1.0;" x1="354.7388" x2="396.7388" y1="295.3719" y2="295.3719"/><line style="stroke:#181818;stroke-width:1.0;" x1="396.7388" x2="396.7388" y1="295.3719" y2="308.3719"/><line style="stroke:#181818;stroke-width:1.0;" x1="355.7388" x2="396.7388" y1="308.3719" y2="308.3719"/><polygon fill="#181818" points="365.7388,304.3719,355.7388,308.3719,365.7388,312.3719,361.7388,308.3719" style="stroke:#181818;stroke-width:1.0;"/><text fill="#000000" font-family="sans-serif" font-size="13" lengthAdjust="spacing" textLength="130.2991" x="361.7388" y="289.5629">Analysis of the Model</text><polygon fill="#181818" points="342.7388,336.0779,352.7388,340.0779,342.7388,344.0779,346.7388,340.0779" style="stroke:#181818;stroke-width:1.0;"/><line style="stroke:#181818;stroke-width:1.0;" x1="48.7328" x2="348.7388" y1="340.0779" y2="340.0779"/><text fill="#000000" font-family="sans-serif" font-size="13" lengthAdjust="spacing" textLength="133.6531" x="55.7328" y="334.2689">View Results &amp; Report</text><line style="stroke:#181818;stroke-width:1.0;" x1="354.7388" x2="396.7388" y1="371.784" y2="371.784"/><line style="stroke:#181818;stroke-width:1.0;" x1="396.7388" x2="396.7388" y1="371.784" y2="384.784"/><line style="stroke:#181818;stroke-width:1.0;" x1="355.7388" x2="396.7388" y1="384.784" y2="384.784"/><polygon fill="#181818" points="365.7388,380.784,355.7388,384.784,365.7388,388.784,361.7388,384.784" style="stroke:#181818;stroke-width:1.0;"/><text fill="#000000" font-family="sans-serif" font-size="13" lengthAdjust="spacing" textLength="149.0972" x="361.7388" y="365.975">Render Results &amp; Report</text><polygon fill="#181818" points="342.7388,433.196,352.7388,437.196,342.7388,441.196,346.7388,437.196" style="stroke:#181818;stroke-width:1.0;"/><line style="stroke:#181818;stroke-width:1.0;" x1="48.7328" x2="348.7388" y1="437.196" y2="437.196"/><text fill="#000000" font-family="sans-serif" font-size="13" lengthAdjust="spacing" textLength="140.1141" x="55.7328" y="431.387">Share Results &amp; Report</text><path d="M359,397.784 L359,460.784 L553,460.784 L553,407.784 L543,397.784 L359,397.784 " fill="#FEFFDD" style="stroke:#181818;stroke-width:0.5;"/><path d="M543,397.784 L543,407.784 L553,407.784 L543,397.784 " fill="#FEFFDD" style="stroke:#181818;stroke-width:0.5;"/><text fill="#000000" font-family="sans-serif" font-size="13" lengthAdjust="spacing" textLength="173.3811" x="365" y="416.681">Check, whether involvement</text><text fill="#000000" font-family="sans-serif" font-size="13" lengthAdjust="spacing" textLength="144.9111" x="365" y="434.387">of Catalog and Contract</text><text fill="#000000" font-family="sans-serif" font-size="13" lengthAdjust="spacing" textLength="132.1321" x="365" y="452.093">Manager is necessary</text><polygon fill="#181818" points="505.836,485.608,515.836,489.608,505.836,493.608,509.836,489.608" style="stroke:#181818;stroke-width:1.0;"/><line style="stroke:#181818;stroke-width:1.0;" x1="354.7388" x2="511.836" y1="489.608" y2="489.608"/><text fill="#000000" font-family="sans-serif" font-size="13" lengthAdjust="spacing" textLength="101.5691" x="361.7388" y="483.799">Results &amp; Report</text><polygon fill="#181818" points="631.4051,517.314,641.4051,521.314,631.4051,525.314,635.4051,521.314" style="stroke:#181818;stroke-width:1.0;"/><line style="stroke:#181818;stroke-width:1.0;" x1="517.836" x2="637.4051" y1="521.314" y2="521.314"/><text fill="#000000" font-family="sans-serif" font-size="13" lengthAdjust="spacing" textLength="101.5691" x="524.836" y="515.505">Results &amp; Report</text><polygon fill="#181818" points="756.9742,549.0201,766.9742,553.0201,756.9742,557.0201,760.9742,553.0201" style="stroke:#181818;stroke-width:1.0;"/><line style="stroke:#181818;stroke-width:1.0;" x1="643.4051" x2="762.9742" y1="553.0201" y2="553.0201"/><text fill="#000000" font-family="sans-serif" font-size="13" lengthAdjust="spacing" textLength="101.5691" x="650.4051" y="547.2111">Results &amp; Report</text><line style="stroke:#181818;stroke-width:1.0;" x1="768.9742" x2="810.9742" y1="584.7261" y2="584.7261"/><line style="stroke:#181818;stroke-width:1.0;" x1="810.9742" x2="810.9742" y1="584.7261" y2="597.7261"/><line style="stroke:#181818;stroke-width:1.0;" x1="769.9742" x2="810.9742" y1="597.7261" y2="597.7261"/><polygon fill="#181818" points="779.9742,593.7261,769.9742,597.7261,779.9742,601.7261,775.9742,597.7261" style="stroke:#181818;stroke-width:1.0;"/><text fill="#000000" font-family="sans-serif" font-size="13" lengthAdjust="spacing" textLength="149.0972" x="775.9742" y="578.9171">Render Results &amp; Report</text><polygon fill="#181818" points="779.9742,625.4321,769.9742,629.4321,779.9742,633.4321,775.9742,629.4321" style="stroke:#181818;stroke-width:1.0;"/><line style="stroke:#181818;stroke-width:1.0;" x1="773.9742" x2="931.0713" y1="629.4321" y2="629.4321"/><text fill="#000000" font-family="sans-serif" font-size="13" lengthAdjust="spacing" textLength="133.6531" x="785.9742" y="623.6231">View Results &amp; Report</text><!--SRC=[TP9FIyD04CNFxgSOUX051Is282B6LC53GLhqrCkucJQZwMxOdQJgftUI_ekslOLzltapRoPenGVe9S_m-5LIa8axqU-Nu6lEA9ps02EWAJ48MoxH2VJIPCJZOJ9nGvzHKL1e8Ji_G2KEY- -VDVNFwsMGmlt3myMLzltRjCpivNxsMjdKkrZDEsp_BplWA87VAw5iuWOe26ySAonuFKXjS9dyDL9GmvQ9rVi7MLcQLiOOXFCxJGOta0P28MWZmp6CIx8yPOl2tdMmn3alMt31aeFkCwxmk49nwzYk9tA40KtPSUC7JroGKRyrsffrIiUYMJULncwLZPkVWkIqK_d6j80HnQgGg356LFeWNOCHEJt1Bj9fdcEWNK1p4mIUvMAEqfpivnaiSj8P0h2hVL7Jd9ngEbYgkoxy3D1be8UKeASmHqDqE6le28uinOZXs-Wqq3YlHcn-YdR8VytRzwNUFw3t6xtU9zPRPN_s6cxFeJgqlLy0]--></g></svg>