<svg xmlns="http://www.w3.org/2000/svg" xmlns:xlink="http://www.w3.org/1999/xlink" contentStyleType="text/css" height="574px" preserveAspectRatio="none" style="width:440px;height:574px;background:#FFFFFF;" version="1.1" viewBox="0 0 440 574" width="440px" zoomAndPan="magnify"><defs/><g><!--cluster Trustworthy AI: CARiSMA--><g id="cluster_Trustworthy AI: CARiSMA"><path d="M150.16,6 L333.5291,6 A3.75,3.75 0 0 1 336.0291,8.5 L343.0291,28.4883 L431.41,28.4883 A2.5,2.5 0 0 1 433.91,30.9883 L433.91,438.5 A2.5,2.5 0 0 1 431.41,441 L150.16,441 A2.5,2.5 0 0 1 147.66,438.5 L147.66,8.5 A2.5,2.5 0 0 1 150.16,6 " fill="none" style="stroke:#000000;stroke-width:1.5;"/><line style="stroke:#000000;stroke-width:1.5;" x1="147.66" x2="343.0291" y1="28.4883" y2="28.4883"/><text fill="#000000" font-family="sans-serif" font-size="14" font-weight="bold" lengthAdjust="spacing" textLength="182.3691" x="151.66" y="21.5352">Trustworthy AI: CARiSMA</text></g><!--cluster Distributed Data Visualization--><g id="cluster_Distributed Data Visualization"><path d="M177.28,465 L396.1755,465 A3.75,3.75 0 0 1 398.6755,467.5 L405.6755,487.4883 L405.28,487.4883 A2.5,2.5 0 0 1 407.78,489.9883 L407.78,557.5 A2.5,2.5 0 0 1 405.28,560 L177.28,560 A2.5,2.5 0 0 1 174.78,557.5 L174.78,467.5 A2.5,2.5 0 0 1 177.28,465 " fill="none" style="stroke:#000000;stroke-width:1.5;"/><line style="stroke:#000000;stroke-width:1.5;" x1="174.78" x2="405.6755" y1="487.4883" y2="487.4883"/><text fill="#000000" font-family="sans-serif" font-size="14" font-weight="bold" lengthAdjust="spacing" textLength="217.8955" x="178.78" y="480.5352">Distributed Data Visualization</text></g><g id="elem_UcCreate"><ellipse cx="290.7821" cy="402.0024" fill="#F1F1F1" rx="102.7121" ry="22.9424" style="stroke:#181818;stroke-width:0.5;"/><text fill="#000000" font-family="sans-serif" font-size="14" lengthAdjust="spacing" textLength="169.5859" x="205.9892" y="405.2934">Create AI Scenario Model</text></g><g id="elem_UcAnalyze"><ellipse cx="290.7763" cy="320.0013" fill="#F1F1F1" rx="106.9563" ry="23.7913" style="stroke:#181818;stroke-width:0.5;"/><text fill="#000000" font-family="sans-serif" font-size="14" lengthAdjust="spacing" textLength="178.8691" x="201.3417" y="323.2923">Analyze AI Scenario Model</text></g><g id="elem_UcView"><ellipse cx="290.785" cy="233.005" fill="#F1F1F1" rx="127.125" ry="27.825" style="stroke:#181818;stroke-width:0.5;"/><text fill="#000000" font-family="sans-serif" font-size="14" lengthAdjust="spacing" textLength="222.1611" x="179.7044" y="236.296">Create &amp; View AI Analysis Report</text></g><g id="elem_UcImprove"><ellipse cx="290.7758" cy="145.9972" fill="#F1F1F1" rx="107.8858" ry="23.9772" style="stroke:#181818;stroke-width:0.5;"/><text fill="#000000" font-family="sans-serif" font-size="14" lengthAdjust="spacing" textLength="180.8926" x="200.3295" y="149.2882">Improve AI Scenario Model</text></g><g id="elem_UcShare"><ellipse cx="290.7762" cy="63.9992" fill="#F1F1F1" rx="100.7462" ry="22.5492" style="stroke:#181818;stroke-width:0.5;"/><text fill="#000000" font-family="sans-serif" font-size="14" lengthAdjust="spacing" textLength="165.2588" x="208.1468" y="67.2903">Share AI Analysis Report</text></g><g id="elem_UcDdView"><ellipse cx="290.7791" cy="522.0038" fill="#F1F1F1" rx="98.1691" ry="22.0338" style="stroke:#181818;stroke-width:0.5;"/><text fill="#000000" font-family="sans-serif" font-size="14" lengthAdjust="spacing" textLength="159.5576" x="211.0003" y="525.2948">View AI Analysis Report</text></g><!--entity u--><g id="elem_u"><ellipse cx="54.8333" cy="484.01" fill="#F1F1F1" rx="8" ry="8" style="stroke:#181818;stroke-width:0.5;"/><path d="M54.8333,492.01 L54.8333,519.01 M41.8333,500.01 L67.8333,500.01 M54.8333,519.01 L41.8333,534.01 M54.8333,519.01 L67.8333,534.01 " fill="none" style="stroke:#181818;stroke-width:0.5;"/><text fill="#000000" font-family="sans-serif" font-size="14" lengthAdjust="spacing" textLength="30.3652" x="7.72" y="549.0452">User</text><text fill="#000000" font-family="sans-serif" font-size="14" lengthAdjust="spacing" textLength="94.2266" x="7.72" y="565.5334">(Data Subject)</text></g><!--entity a--><g id="elem_a"><ellipse cx="54.8291" cy="195.01" fill="#F1F1F1" rx="8" ry="8" style="stroke:#181818;stroke-width:0.5;"/><path d="M54.8291,203.01 L54.8291,230.01 M41.8291,211.01 L67.8291,211.01 M54.8291,230.01 L41.8291,245.01 M54.8291,230.01 L67.8291,245.01 " fill="none" style="stroke:#181818;stroke-width:0.5;"/><text fill="#000000" font-family="sans-serif" font-size="14" lengthAdjust="spacing" textLength="97.6582" x="6" y="260.0452">Use Case Lead</text><text fill="#000000" font-family="sans-serif" font-size="14" lengthAdjust="spacing" textLength="70.9775" x="6" y="276.5334">(AI Expert)</text></g><!--link a to UcCreate--><g id="link_a_UcCreate"><path d="M75.98,279.8 C90.06,307.24 111.41,340.45 139.66,361 C158.23,374.51 175.2332,381.9849 197.3932,388.0549 " fill="none" id="a-to-UcCreate" style="stroke:#181818;stroke-width:1.0;"/><polygon fill="#181818" points="203.18,389.64,195.5565,383.4044,198.3576,388.3191,193.443,391.1202,203.18,389.64" style="stroke:#181818;stroke-width:1.0;"/></g><!--link a to UcAnalyze--><g id="link_a_UcAnalyze"><path d="M103.72,261.03 C115.26,267.13 127.71,273.19 139.66,278 C163.89,287.75 185.3871,294.557 209.9971,301.197 " fill="none" id="a-to-UcAnalyze" style="stroke:#181818;stroke-width:1.0;"/><polygon fill="#181818" points="215.79,302.76,208.1427,296.5537,210.9626,301.4575,206.0587,304.2775,215.79,302.76" style="stroke:#181818;stroke-width:1.0;"/></g><!--link a to UcView--><g id="link_a_UcView"><path d="M104.02,233 C121.54,233 136.26,233 157.39,233 " fill="none" id="a-to-UcView" style="stroke:#181818;stroke-width:1.0;"/><polygon fill="#181818" points="163.39,233,154.39,229,158.39,233,154.39,237,163.39,233" style="stroke:#181818;stroke-width:1.0;"/></g><!--link a to UcImprove--><g id="link_a_UcImprove"><path d="M103.72,204.97 C115.26,198.87 127.71,192.81 139.66,188 C163.63,178.35 184.8186,171.6183 209.2286,165.0083 " fill="none" id="a-to-UcImprove" style="stroke:#181818;stroke-width:1.0;"/><polygon fill="#181818" points="215.02,163.44,205.2874,161.9314,210.1938,164.7469,207.3784,169.6533,215.02,163.44" style="stroke:#181818;stroke-width:1.0;"/></g><!--link a to UcShare--><g id="link_a_UcShare"><path d="M75.98,186.2 C90.06,158.76 111.41,125.55 139.66,105 C158.67,91.17 176.3047,83.5638 198.9447,77.4938 " fill="none" id="a-to-UcShare" style="stroke:#181818;stroke-width:1.0;"/><polygon fill="#181818" points="204.74,75.94,195.0112,74.4071,199.9106,77.2348,197.0829,82.1342,204.74,75.94" style="stroke:#181818;stroke-width:1.0;"/></g><!--link u to UcDdView--><g id="link_u_UcDdView"><path d="M102.33,522 C128.18,522 155.36,522 186.59,522 " fill="none" id="u-to-UcDdView" style="stroke:#181818;stroke-width:1.0;"/><polygon fill="#181818" points="192.59,522,183.59,518,187.59,522,183.59,526,192.59,522" style="stroke:#181818;stroke-width:1.0;"/></g><!--SRC=[VL5DJyCm33sJNs7rWE2mFy01gMevL6ANbUt4nKlDPYXDvIIC3Us_atw5WTWkaL_qthFzNDEB0sT0UBDrKB6GTcmQfL0x8-01BIHBI_BStEJe44g_VWsSssHauCI03CFpI5W5Qbh0msTBql5KY_eDDmJ9atZhTaRSTWzfSGTPkk1odYRmfQwy9TqPB7KcX8vwsx4CRgMc1eKDp4r5TNBAJnkizuT1CDMN5IkctQd_DVG_GTJhBLjOK1lc_AKgtbin7qEVgRxSfzoY3FoX-g_1yIUUdAqJNdj75VHPhzXwhFc0tKd-f9HNSOkpmn_36M4sku-XHZZc575d4S6uNCJzyCgFQ6YilW40]--></g></svg>