<svg xmlns="http://www.w3.org/2000/svg" xmlns:xlink="http://www.w3.org/1999/xlink" contentStyleType="text/css" height="586px" preserveAspectRatio="none" style="width:431px;height:586px;background:#FFFFFF;" version="1.1" viewBox="0 0 431 586" width="431px" zoomAndPan="magnify"><defs/><g><!--cluster Trustworthy AI: CARiSMA--><g id="cluster_Trustworthy AI: CARiSMA"><path d="M143.5,6.602 L317.9349,6.602 A3.75,3.75 0 0 1 320.4349,9.102 L327.4349,31.6699 L421.5,31.6699 A2.5,2.5 0 0 1 424,34.1699 L424,445.102 A2.5,2.5 0 0 1 421.5,447.602 L143.5,447.602 A2.5,2.5 0 0 1 141,445.102 L141,9.102 A2.5,2.5 0 0 1 143.5,6.602 " fill="none" style="stroke:#000000;stroke-width:1.5;"/><line style="stroke:#000000;stroke-width:1.5;" x1="141" x2="327.4349" y1="31.6699" y2="31.6699"/><text fill="#000000" font-family="sans-serif" font-size="14" font-weight="bold" lengthAdjust="spacing" textLength="173.4349" x="145" y="23.5679">Trustworthy AI: CARiSMA</text></g><!--cluster Distributed Data Visualization--><g id="cluster_Distributed Data Visualization"><path d="M169.5,471.602 L377.4893,471.602 A3.75,3.75 0 0 1 379.9893,474.102 L386.9893,496.6699 L395.5,496.6699 A2.5,2.5 0 0 1 398,499.1699 L398,569.102 A2.5,2.5 0 0 1 395.5,571.602 L169.5,571.602 A2.5,2.5 0 0 1 167,569.102 L167,474.102 A2.5,2.5 0 0 1 169.5,471.602 " fill="none" style="stroke:#000000;stroke-width:1.5;"/><line style="stroke:#000000;stroke-width:1.5;" x1="167" x2="386.9893" y1="496.6699" y2="496.6699"/><text fill="#000000" font-family="sans-serif" font-size="14" font-weight="bold" lengthAdjust="spacing" textLength="206.9893" x="171" y="488.5679">Distributed Data Visualization</text></g><g id="elem_UcCreate"><ellipse cx="282.5985" cy="68.4217" fill="#F1F1F1" rx="104.5985" ry="23.3197" style="stroke:#181818;stroke-width:0.5;"/><text fill="#000000" font-family="sans-serif" font-size="14" lengthAdjust="spacing" textLength="165.8994" x="196.6488" y="73.1546">Create AI Scenario Model</text></g><g id="elem_UcAnalyze"><ellipse cx="282.7258" cy="151.5471" fill="#F1F1F1" rx="107.7258" ry="23.9452" style="stroke:#181818;stroke-width:0.5;"/><text fill="#000000" font-family="sans-serif" font-size="14" lengthAdjust="spacing" textLength="173.2493" x="193.1011" y="156.2801">Analyze AI Scenario Model</text></g><g id="elem_UcView"><ellipse cx="282.7421" cy="238.6504" fill="#F1F1F1" rx="125.7421" ry="27.5484" style="stroke:#181818;stroke-width:0.5;"/><text fill="#000000" font-family="sans-serif" font-size="14" lengthAdjust="spacing" textLength="214.1292" x="174.4723" y="242.6541">Create &amp; View AI Analysis Report</text></g><g id="elem_UcImprove"><ellipse cx="282.3843" cy="325.4788" fill="#F1F1F1" rx="109.8843" ry="24.3769" style="stroke:#181818;stroke-width:0.5;"/><text fill="#000000" font-family="sans-serif" font-size="14" lengthAdjust="spacing" textLength="178.2753" x="190.2466" y="330.2118">Improve AI Scenario Model</text></g><g id="elem_UcShare"><ellipse cx="282.7117" cy="408.4443" fill="#F1F1F1" rx="102.2117" ry="22.8423" style="stroke:#181818;stroke-width:0.5;"/><text fill="#000000" font-family="sans-serif" font-size="14" lengthAdjust="spacing" textLength="160.2294" x="199.597" y="413.1773">Share AI Analysis Report</text></g><g id="elem_UcDdView"><ellipse cx="282.3159" cy="532.3652" fill="#F1F1F1" rx="99.3159" ry="22.2632" style="stroke:#181818;stroke-width:0.5;"/><text fill="#000000" font-family="sans-serif" font-size="14" lengthAdjust="spacing" textLength="153.2714" x="202.6802" y="537.0981">View AI Analysis Report</text></g><!--entity u--><g id="elem_u"><ellipse cx="51.6258" cy="492.102" fill="#F1F1F1" rx="8" ry="8" style="stroke:#181818;stroke-width:0.5;"/><path d="M51.6258,500.102 L51.6258,527.102 M38.6258,508.102 L64.6258,508.102 M51.6258,527.102 L38.6258,542.102 M51.6258,527.102 L64.6258,542.102 " fill="none" style="stroke:#181818;stroke-width:0.5;"/><text fill="#000000" font-family="sans-serif" font-size="14" lengthAdjust="spacing" textLength="30.6179" x="6" y="558.5679">User</text><text fill="#000000" font-family="sans-serif" font-size="14" lengthAdjust="spacing" textLength="91.2516" x="6" y="577.6358">(Data Subject)</text></g><!--entity a--><g id="elem_a"><ellipse cx="51.7328" cy="198.102" fill="#F1F1F1" rx="8" ry="8" style="stroke:#181818;stroke-width:0.5;"/><path d="M51.7328,206.102 L51.7328,233.102 M38.7328,214.102 L64.7328,214.102 M51.7328,233.102 L38.7328,248.102 M51.7328,233.102 L64.7328,248.102 " fill="none" style="stroke:#181818;stroke-width:0.5;"/><text fill="#000000" font-family="sans-serif" font-size="14" lengthAdjust="spacing" textLength="59.8638" x="11" y="264.5679">AI Expert</text><text fill="#000000" font-family="sans-serif" font-size="14" lengthAdjust="spacing" textLength="81.4657" x="11" y="283.6358">(AI Provider)</text></g><!--link a to UcCreate--><g id="link_a_UcCreate"><path d="M72.44,189.262 C85.79,162.062 105.92,129.812 133,109.602 C150.68,96.402 166.6197,89.0964 187.9197,83.0264 " fill="none" id="a-to-UcCreate" style="stroke:#181818;stroke-width:1.0;"/><polygon fill="#181818" points="193.69,81.382,183.9383,80.0017,188.8814,82.7523,186.1309,87.6954,193.69,81.382" style="stroke:#181818;stroke-width:1.0;"/></g><!--link a to UcAnalyze--><g id="link_a_UcAnalyze"><path d="M92.12,214.032 C104.86,206.792 119.24,199.302 133,193.602 C156.52,183.862 177.2433,177.1576 201.2933,170.5676 " fill="none" id="a-to-UcAnalyze" style="stroke:#181818;stroke-width:1.0;"/><polygon fill="#181818" points="207.08,168.982,197.3429,167.5026,202.2578,170.3033,199.457,175.2182,207.08,168.982" style="stroke:#181818;stroke-width:1.0;"/></g><!--link a to UcView--><g id="link_a_UcView"><path d="M92.39,238.602 C110.71,238.602 127.55,238.602 150.96,238.602 " fill="none" id="a-to-UcView" style="stroke:#181818;stroke-width:1.0;"/><polygon fill="#181818" points="156.96,238.602,147.96,234.602,151.96,238.602,147.96,242.602,156.96,238.602" style="stroke:#181818;stroke-width:1.0;"/></g><!--link a to UcImprove--><g id="link_a_UcImprove"><path d="M92.12,263.172 C104.86,270.412 119.24,277.902 133,283.602 C156.02,293.132 176.1253,299.699 199.7653,306.209 " fill="none" id="a-to-UcImprove" style="stroke:#181818;stroke-width:1.0;"/><polygon fill="#181818" points="205.55,307.802,197.935,301.5561,200.7294,306.4745,195.811,309.2689,205.55,307.802" style="stroke:#181818;stroke-width:1.0;"/></g><!--link a to UcShare--><g id="link_a_UcShare"><path d="M72.44,287.942 C85.79,315.142 105.92,347.392 133,367.602 C151.22,381.202 167.9276,388.6907 189.8476,394.7607 " fill="none" id="a-to-UcShare" style="stroke:#181818;stroke-width:1.0;"/><polygon fill="#181818" points="195.63,396.362,188.0239,390.1052,190.8113,395.0276,185.8889,397.8151,195.63,396.362" style="stroke:#181818;stroke-width:1.0;"/></g><!--link u to UcDdView--><g id="link_u_UcDdView"><path d="M97.47,532.602 C121.83,532.602 146.94,532.602 176.63,532.602 " fill="none" id="u-to-UcDdView" style="stroke:#181818;stroke-width:1.0;"/><polygon fill="#181818" points="182.63,532.602,173.63,528.602,177.63,532.602,173.63,536.602,182.63,532.602" style="stroke:#181818;stroke-width:1.0;"/></g><!--SRC=[VL51JiCm43pZLwnoG73e1pWWHGs772gXXlR4PUiiZI74qNfDQL7_ZkkafY3QsumrCxixRkb5G2omMJS2jM7IOcod56gn31xGGRPmnC_TJO62KFdLQz3SPgC2eo8luU6p9vOW2_YHxOUfYODAzQZVS4sGFR5tih4ipHRoyWwc-TnKipo3BtNb7Mbq10izPKAX63h2a5Tfwf2DXPcjgSrEzNc7xNOt68xuicDfQ7EQVmtn9PYYtna7S-h3dhzSvNiVZXhc7F7bELM3FEW7zD-0_KyzXN72PkM5QeXDButps9eT7ZxaJqj5dQuuk_m-V29C9lUfr4J7dX8_H2Go7fTuN5xvaGs3rJS0]--></g></svg>